<svg aria-labelledby="made-in-ny-icon" role="img" xmlns="http://www.w3.org/2000/svg" viewBox="0 0 1133.9 952.5"><title id="made-in-ny-icon">Made in New York icon</title>
<path d="M1015.1,477.4c0.2,249-203.7,453.5-457.6,449C315.6,922,116.1,724.5,117,475.2c0.9-248.9,204.4-450.2,455-447
    C816.7,31.4,1015.1,230.6,1015.1,477.4z M566.4,61.3C337.8,61,151.2,245.8,150.1,475.1c-1.1,231.2,184.2,414.1,407.8,418.2
    c233.3,4.3,421.3-182.5,424.1-410.5C984.9,249.6,796.5,61.3,566.4,61.3z"/>
<path d="M530.5,682.8c0-74.7,0-149.5,0-224.7c14.3,0,28.2,0,42.6,0c0,98.9,0,197.9,0,297.5c-9.2,0-33.5,0.2-42.4,0.2
    c0,0-3.2-3.5-10-12.3c-54.7-70.7-109.9-141-165-211.4c-0.7-0.9-1.4-1.6-3.1-3.5c0,76.3,0,151.3,0,226.6c-14.5,0-28.4,0-42.6,0
    c0-99.1,0-198,0-297.6c5.8,0,11.6,0,17.4,0c6.8,0,18.8,0.1,25.6-0.1c0,0,0.4,0.8,2.5,3.5c27.9,35.9,55.9,71.6,83.9,107.4
    c29.2,37.4,58.4,74.7,87.7,112.1c0.7,0.9,1.5,1.7,2.3,2.5C529.7,683.1,530.1,683,530.5,682.8z"/>
<path d="M902.1,457.7c-9.5,13-18.2,25-26.9,36.9c-31.5,43.1-63,86.2-94.4,129.5c-1.6,2.2-2.6,5.4-2.6,8.1
    c-0.2,39.1-0.1,78.3-0.1,117.4c0,1.8,0,3.6,0,5.7c-14.4,0-28.3,0-42.9,0c0-2.1,0-4,0-6c0-39,0.1-78-0.1-116.9c0-3.1-1.2-6.6-2.9-9.1
    c-37.9-53.7-75.9-107.3-113.9-160.9c-0.9-1.3-1.7-2.7-3.1-4.8c8.9,0,16.8,0,24.8,0c7.3,0,14.7,0.2,22-0.1c3.6-0.1,5.7,1.1,7.7,4
    c28.3,39.7,56.7,79.3,85.1,119c0.8,1.2,1.7,2.3,2.9,3.9c8.2-11.6,16.2-22.8,24.2-34.1c21.1-29.7,42.1-59.5,63.3-89.1
    c1.1-1.5,2.9-3.4,4.4-3.4C866.5,457.6,883.7,457.7,902.1,457.7z"/>
<path d="M442.4,239.5c-5,3.4-9.4,6.4-14.3,9.8c-9.9-14.4-19.8-28.7-29.6-43.1c-0.4,0.2-0.9,0.3-1.3,0.5c0,16.4,0,32.8,0,50.1
    c-16.4-6.2-32-12.1-47.5-18.1c-0.3,0.3-0.6,0.5-0.9,0.8c9.8,14.4,19.6,28.8,29.7,43.6c-4.7,3.3-9.2,6.4-14.2,9.8
    c-16.2-23.6-32.2-47-48.4-70.7c4.4-3.1,8.3-6.2,12.6-8.6c1.4-0.8,3.8-0.4,5.5,0.3c12.8,4.7,25.5,9.6,38.3,14.4c2,0.8,4,1.4,7.4,2.5
    c0-8.5,0-16.4,0-24.3c0-7.8,0.3-15.7,0.1-23.5c-0.1-3.4,0.9-5.6,3.9-7.3c3.4-2,6.6-4.4,10.4-7C410.1,192.3,426.1,215.7,442.4,239.5z
    "/>
<path d="M592,212.8c6.8-28.1,13.4-55.5,20.2-83.7c18.4,4.9,36.4,9.5,54.3,14.5c3.6,1,6.9,3.3,10,5.5c14.4,10.7,17.2,25.4,13.2,41.9
    c-6.4,26.9-26.4,38.9-53.3,32.5C621.8,220,607.3,216.5,592,212.8z M612.8,200.5c12.6,2.5,24.7,5.7,36.9,7c9.9,1.1,17-4.8,21-13.9
    c1.4-3.3,2.2-7,2.8-10.6c1.6-9.9-2-18.8-11.2-22.3c-12-4.6-24.7-7.3-37.3-10.9C620.8,167.2,616.9,183.3,612.8,200.5z"/>
<path d="M558.9,300.5c5.1,0,11.5-0.1,16.7,0c0,0,0.9,1.5,2.1,2.8c13.1,16,26,32.1,39,48.1c1.2,1.5,1.7,2.2,4.9,5.1
    c0-18,0-37.5,0-55.7c5.9,0,11.2,0,16.8,0c0,27.7,0,55.5,0,83.8c-5,0-11.9,0.1-16,0c0,0-2.4-2.3-3.7-3.8
    c-13.2-16.1-26.3-32.3-39.4-48.5c-0.9-1.1-1.9-2.1-3.7-4.2c0,19.5,0,37.7,0,56.2c-5.8,0-11.1,0-16.7,0
    C558.9,356.4,558.9,328.7,558.9,300.5z"/>
<path d="M778.7,279.5c-3.5,4.9-6.7,9.4-10,14.1c-21.4-15.1-42.4-29.9-63.8-45.1c16.5-23.4,32.8-46.5,49.5-70.1
    c20.7,14.6,41.2,29.1,62.2,43.9c-3.4,4.9-6.6,9.4-10,14.2c-16.1-11.3-31.8-22.4-48-33.8c-3.1,4.3-5.9,8.1-8.9,12.4
    c8.4,6,16.7,11.9,25.3,18c-3.3,4.7-6.5,9.2-10,14.1c-8.6-6-16.7-11.7-25.3-17.8c-3.5,4.9-6.8,9.5-10.6,14.8
    C745.6,256,761.9,267.6,778.7,279.5z"/>
<path d="M482.7,223.4c0,0-12.9,4.5-19.8,6.3c5.9-21.1,11.6-41.3,17.3-61.6c2.4-8.6,5.1-17.2,7.2-25.9c0.8-3.3,1.1-4.3,1.1-4.3
    c3.9-0.6,19.3-3.4,23.1-4.3c0,0,0.8,1.6,3.9,5.9c16,22.3,32.3,44.4,48.6,66.5c1.1,1.4,2,3,3.4,5.1c-6.6,0.8-12.8,1.2-19.5,1.9
    l-10.9-15.2c0,0-1.6,0.4-15.2,2.8c-8.2,1.5-23.9,4.3-34.2,6.4 M503.1,152.6c-3.6,12.5-6.8,23.8-10.2,35.9c11.1-2,21.3-3.8,32.2-5.8
    C517.7,172.5,510.8,163.1,503.1,152.6z"/>
<path d="M498.2,384.3c0-27.8,0-55.4,0-83.4c5.3,0,10.6,0,16.3,0c0,27.8,0,55.5,0,83.4C509,384.3,503.8,384.3,498.2,384.3z"/>
</svg>
