<svg xmlns="http://www.w3.org/2000/svg" viewBox="0 0 132.4 16"><path d="M0 14.8L5 1h2l4.9 13.9H9.9l-4-11.8h0L2.4 13.2h4.9v1.6H0zM14.6 5.1V7c0.1-0.6 0.5-1.1 1-1.5 0.6-0.4 1.2-0.6 1.9-0.6 0.2 0 0.4 0 0.5 0.1v1.6c-0.2 0-0.4-0.1-0.6-0.1 -0.6 0-1.1 0.2-1.5 0.5 -0.4 0.3-0.8 0.7-1 1.2 -0.2 0.5-0.3 1-0.3 1.6v5.1h-1.7V5.1H14.6zM22.8 13.7c1.4 0 2.3-0.6 2.8-1.7l1.3 0.7c-0.4 0.8-1 1.4-1.7 1.8 -0.7 0.4-1.5 0.6-2.5 0.6 -1.4 0-2.6-0.5-3.4-1.4 -0.8-0.9-1.2-2.1-1.2-3.7s0.4-2.8 1.3-3.7c0.9-0.9 2-1.4 3.3-1.4 1 0 1.8 0.2 2.5 0.7C26 6 26.5 6.7 26.8 7.5l-1.4 0.7C24.9 7 24 6.3 22.8 6.3c-0.9 0-1.6 0.3-2.1 1 -0.5 0.7-0.8 1.6-0.8 2.7 0 1.1 0.3 2 0.8 2.7C21.2 13.3 21.9 13.7 22.8 13.7zM32.7 4.9c1.3 0 2.2 0.4 2.7 1.3C35.8 6.7 36 7.6 36 8.7v6.1h-1.7V9.2c0-1-0.2-1.7-0.5-2.2s-0.9-0.6-1.7-0.6c-0.8 0-1.4 0.3-1.9 0.8 -0.5 0.5-0.7 1.2-0.7 2v5.6h-1.7V1h1.7v5.6c0.3-0.5 0.7-0.9 1.2-1.2C31.3 5.1 31.9 4.9 32.7 4.9zM37.6 1.1c0.2-0.2 0.5-0.3 0.8-0.3 0.3 0 0.6 0.1 0.8 0.3 0.2 0.2 0.3 0.5 0.3 0.8s-0.1 0.6-0.3 0.8 -0.5 0.3-0.8 0.3c-0.3 0-0.6-0.1-0.8-0.3 -0.2-0.2-0.3-0.5-0.3-0.8C37.3 1.6 37.4 1.3 37.6 1.1zM39.3 14.8h-1.7V5.1h1.7V14.8zM42.5 2h1.7v3.1h2.1v1.4h-2.1v8.3h-1.7V6.5h-1.9V5.1h1.9V2zM47.7 1.1c0.2-0.2 0.5-0.3 0.8-0.3s0.6 0.1 0.8 0.3c0.2 0.2 0.3 0.5 0.3 0.8s-0.1 0.6-0.3 0.8 -0.5 0.3-0.8 0.3c-0.3 0-0.6-0.1-0.8-0.3s-0.3-0.5-0.3-0.8S47.5 1.3 47.7 1.1zM49.4 14.8h-1.7V5.1h1.7V14.8zM58.3 5.1v1.3l-5.6 7h5.7v1.4h-7.6v-1.3l5.5-7H51V5.1H58.3zM63.5 4.9c0.9 0 1.8 0.2 2.4 0.7C66.5 6 67 6.6 67.4 7.4c0.3 0.8 0.5 1.6 0.5 2.6v0.4h-7.3c0 0.4 0.1 0.8 0.2 1.2 0.1 0.4 0.3 0.7 0.5 1 0.2 0.3 0.6 0.6 1 0.7 0.4 0.2 0.9 0.3 1.4 0.3 1.2 0 2.2-0.5 2.9-1.6l1.2 0.9c-0.1 0.1-0.2 0.3-0.3 0.5s-0.3 0.3-0.6 0.6c-0.3 0.2-0.5 0.4-0.8 0.6 -0.3 0.2-0.7 0.3-1.1 0.4 -0.5 0.1-0.9 0.2-1.4 0.2 -1.4 0-2.5-0.5-3.4-1.4 -0.8-0.9-1.3-2.2-1.3-3.8 0-1.5 0.4-2.7 1.3-3.6C61 5.4 62.1 4.9 63.5 4.9zM60.6 9h5.4c-0.1-0.9-0.3-1.5-0.8-2s-1.1-0.7-1.8-0.7c-0.8 0-1.4 0.2-1.9 0.7S60.7 8.2 60.6 9zM73.8 4.9c0.2 0 0.4 0 0.6 0.1v1.6c-0.2 0-0.4-0.1-0.6-0.1 -0.9 0-1.6 0.3-2.1 1s-0.8 1.4-0.8 2.3v5.1h-1.7V5.1h1.7V7c0.1-0.6 0.5-1.1 1.1-1.5C72.5 5.1 73.1 4.9 73.8 4.9z"/><path d="M84.6 4.3c-0.9-1.1-2.1-1.8-3.6-1.8 -1.8 0-3.2 1-3.2 2.4 0 1.5 0.9 2 2.7 2.4l1.8 0.4c2.4 0.5 3.8 1.4 3.8 3.6 0 2.3-1.9 4-5 4 -3 0-4.7-1.6-5.4-3.1l1.1-0.7c0.5 1.4 1.9 2.7 4.3 2.7s3.7-1.1 3.7-2.8c0-1.5-1-2.1-2.9-2.5l-1.7-0.4c-2-0.4-3.8-1.1-3.8-3.5 0-2.1 1.9-3.7 4.6-3.7 2.2 0 3.7 1 4.6 2.1L84.6 4.3z"/><path d="M92.2 5.5c2.7 0 4.3 2 4.3 5 0 3-1.6 5-4.3 5 -2.7 0-4.3-2-4.3-5C87.9 7.5 89.5 5.5 92.2 5.5zM92.2 14.5c1.8 0 3.1-1.5 3.1-4 0-2.5-1.2-4-3.1-4 -1.9 0-3.1 1.5-3.1 4S90.3 14.5 92.2 14.5z"/><path d="M98.9 5.7h1.2v5.4c0 1.2 0.1 2.1 0.6 2.6 0.4 0.4 0.9 0.6 1.7 0.6 2 0 2.7-1.6 2.7-3V5.7h1.2v9.5h-1.2v-1.6c-0.4 0.9-1.4 1.8-3 1.8 -1 0-1.8-0.3-2.4-0.9 -0.5-0.6-0.8-1.4-0.8-2.9V5.7z"/><path d="M114 6.7c-0.2 0-0.4-0.1-0.7-0.1 -1.7 0-2.9 1.3-2.9 3.2v5.4h-1.2V5.7h1.2v1.8c0.3-1.1 1.4-2.1 2.9-2.1 0.2 0 0.4 0 0.6 0.1V6.7z"/><path d="M121.4 8.6c-0.5-1.3-1.3-2.1-2.7-2.1 -1.9 0-3.1 1.5-3.1 4s1.2 4 3.1 4c1.3 0 2.2-0.6 2.8-1.8l0.9 0.6c-0.7 1.4-1.9 2.3-3.7 2.3 -2.7 0-4.3-1.9-4.3-5 0-3.1 1.7-5 4.3-5 1.9 0 3.1 0.9 3.7 2.5L121.4 8.6z"/><path d="M132.4 12.9c-0.5 1.1-1.7 2.6-4.1 2.6 -2.7 0-4.4-1.8-4.4-5.1 0-2.9 1.7-4.9 4.3-4.9 2.8 0 4.2 2.1 4.2 4.9v0.2h-7.2v0.1c0 2.5 1.4 3.7 3.2 3.7 1.8 0 2.8-1.2 3.2-2.1L132.4 12.9zM125.2 9.6h5.9c0-1.5-1-3.2-2.9-3.2C126.5 6.5 125.3 7.7 125.2 9.6z"/></svg>