<?xml version="1.0" encoding="UTF-8"?>
<svg width="54px" height="54px" viewBox="0 0 54 54" version="1.1" xmlns="http://www.w3.org/2000/svg" xmlns:xlink="http://www.w3.org/1999/xlink">
    <!-- Generator: Sketch 47.1 (45422) - http://www.bohemiancoding.com/sketch -->
    <title>article</title>
    <desc>Created with Sketch.</desc>
    <defs>
        <rect id="path-1" x="0" y="0" width="54" height="54"></rect>
    </defs>
    <g id="Brand-Profile" stroke="none" stroke-width="1" fill="none" fill-rule="evenodd">
        <g id="bpm_profile_claim" transform="translate(-682.000000, -84.000000)">
            <g id="brand_hero" transform="translate(36.000000, 83.000000)">
                <g id="article" transform="translate(646.000000, 1.000000)">
                    <mask id="mask-2" fill="white">
                        <use xlink:href="#path-1"></use>
                    </mask>
                    <use id="mask" fill="#E3EAED" xlink:href="#path-1"></use>
                    <path d="M36.875,34.2871094 L36.875,22.2753906 C35.8007759,21.9498682 34.580085,21.7871094 33.2128906,21.7871094 C31.0969946,21.7871094 29.1927168,22.3079375 27.5,23.3496094 L27.5,35.3125 C29.1927168,34.2708281 31.0969946,33.75 33.2128906,33.75 C34.4824282,33.75 35.7031191,33.9290347 36.875,34.2871094 Z M33.2128906,19.6875 C35.6868613,19.6875 37.607415,20.2083281 38.9746094,21.25 L38.9746094,36.4355469 C38.9746094,36.5657559 38.9176438,36.687825 38.8037109,36.8017578 C38.6897781,36.9156907 38.567709,36.9726562 38.4375,36.9726562 C38.3398433,36.9726562 38.2584639,36.9563804 38.1933594,36.9238281 C36.8587173,36.2076787 35.1985776,35.8496094 33.2128906,35.8496094 C31.0969946,35.8496094 29.1927168,36.3704375 27.5,37.4121094 C26.1002534,36.3704375 24.1959756,35.8496094 21.7871094,35.8496094 C20.0292881,35.8496094 18.3691484,36.2239546 16.8066406,36.9726562 C16.7740884,36.9726562 16.7333987,36.9807942 16.6845703,36.9970703 C16.6357419,37.0133464 16.5950522,37.0214844 16.5625,37.0214844 C16.432291,37.0214844 16.3102219,36.9726567 16.1962891,36.875 C16.0823562,36.7773433 16.0253906,36.6634121 16.0253906,36.5332031 L16.0253906,21.25 C17.4251372,20.2083281 19.3456909,19.6875 21.7871094,19.6875 C24.1959756,19.6875 26.1002534,20.2083281 27.5,21.25 C28.8997466,20.2083281 30.8040244,19.6875 33.2128906,19.6875 Z" id="import_contacts" fill="#A2B7C3" mask="url(#mask-2)"></path>
                </g>
            </g>
        </g>
    </g>
</svg>