<?xml version="1.0" encoding="UTF-8"?>
<svg width="54px" height="54px" viewBox="0 0 54 54" version="1.1" xmlns="http://www.w3.org/2000/svg" xmlns:xlink="http://www.w3.org/1999/xlink">
    <!-- Generator: Sketch 47.1 (45422) - http://www.bohemiancoding.com/sketch -->
    <title>brand</title>
    <desc>Created with Sketch.</desc>
    <defs>
        <rect id="path-1" x="0" y="0" width="54" height="54"></rect>
    </defs>
    <g id="Brand-Profile" stroke="none" stroke-width="1" fill="none" fill-rule="evenodd">
        <g id="bpm_profile_claim" transform="translate(-394.000000, -84.000000)">
            <g id="brand_hero" transform="translate(36.000000, 83.000000)">
                <g id="brand" transform="translate(358.000000, 1.000000)">
                    <mask id="mask-2" fill="white">
                        <use xlink:href="#path-1"></use>
                    </mask>
                    <use id="mask" fill="#E3EAED" xlink:href="#path-1"></use>
                    <path d="M27.5,33.75 L27.5,29.5996094 L21.25,29.5996094 L21.25,33.75 L27.5,33.75 Z M36.875,29.5996094 L35.8496094,29.5996094 L35.8496094,35.8496094 L33.75,35.8496094 L33.75,29.5996094 L29.5996094,29.5996094 L29.5996094,35.8496094 L19.1503906,35.8496094 L19.1503906,29.5996094 L18.125,29.5996094 L18.125,27.5 L19.1503906,22.2753906 L35.8496094,22.2753906 L36.875,27.5 L36.875,29.5996094 Z M35.8496094,19.1503906 L35.8496094,21.25 L19.1503906,21.25 L19.1503906,19.1503906 L35.8496094,19.1503906 Z" id="store" fill="#A2B7C3" mask="url(#mask-2)"></path>
                </g>
            </g>
        </g>
    </g>
</svg>