<?xml version="1.0" encoding="UTF-8"?>
<svg width="54px" height="54px" viewBox="0 0 54 54" version="1.1" xmlns="http://www.w3.org/2000/svg" xmlns:xlink="http://www.w3.org/1999/xlink">
    <!-- Generator: Sketch 47.1 (45422) - http://www.bohemiancoding.com/sketch -->
    <title>firm</title>
    <desc>Created with Sketch.</desc>
    <defs>
        <rect id="path-1" x="0" y="0" width="54" height="54"></rect>
    </defs>
    <g id="Brand-Profile" stroke="none" stroke-width="1" fill="none" fill-rule="evenodd">
        <g id="bpm_profile_claim" transform="translate(-538.000000, -84.000000)">
            <g id="brand_hero" transform="translate(36.000000, 83.000000)">
                <g id="firm" transform="translate(502.000000, 1.000000)">
                    <mask id="mask-2" fill="white">
                        <use xlink:href="#path-1"></use>
                    </mask>
                    <use id="mask" fill="#E3EAED" xlink:href="#path-1"></use>
                    <path d="M31.6503906,28.5253906 C32.5618535,28.5253906 33.5546821,28.6555977 34.6289062,28.9160156 C35.7031304,29.1764336 36.695959,29.5996064 37.6074219,30.1855469 C38.5188848,30.7714873 38.9746094,31.4387983 38.9746094,32.1875 L38.9746094,34.7753906 L32.7246094,34.7753906 L32.7246094,32.1875 C32.7246094,30.7552012 32.0410225,29.5507861 30.6738281,28.5742188 C30.9016938,28.5416665 31.2272114,28.5253906 31.6503906,28.5253906 Z M23.3496094,28.5253906 C24.2610723,28.5253906 25.2539009,28.6555977 26.328125,28.9160156 C27.4023491,29.1764336 28.3870398,29.5996064 29.2822266,30.1855469 C30.1774133,30.7714873 30.625,31.4387983 30.625,32.1875 L30.625,34.7753906 L16.0253906,34.7753906 L16.0253906,32.1875 C16.0253906,31.4387983 16.4811152,30.7714873 17.3925781,30.1855469 C18.304041,29.5996064 19.2968696,29.1764336 20.3710938,28.9160156 C21.4453179,28.6555977 22.4381465,28.5253906 23.3496094,28.5253906 Z M23.3496094,26.4746094 C22.503251,26.4746094 21.7708364,26.1653677 21.1523438,25.546875 C20.5338511,24.9283823 20.2246094,24.1959678 20.2246094,23.3496094 C20.2246094,22.503251 20.5338511,21.7708364 21.1523438,21.1523438 C21.7708364,20.5338511 22.503251,20.2246094 23.3496094,20.2246094 C24.1959678,20.2246094 24.9202444,20.5338511 25.5224609,21.1523438 C26.1246775,21.7708364 26.4257812,22.503251 26.4257812,23.3496094 C26.4257812,24.1959678 26.1246775,24.9283823 25.5224609,25.546875 C24.9202444,26.1653677 24.1959678,26.4746094 23.3496094,26.4746094 Z M31.6503906,26.4746094 C30.8040322,26.4746094 30.0716177,26.1653677 29.453125,25.546875 C28.8346323,24.9283823 28.5253906,24.1959678 28.5253906,23.3496094 C28.5253906,22.503251 28.8346323,21.7708364 29.453125,21.1523438 C30.0716177,20.5338511 30.8040322,20.2246094 31.6503906,20.2246094 C32.496749,20.2246094 33.2291636,20.5338511 33.8476562,21.1523438 C34.4661489,21.7708364 34.7753906,22.503251 34.7753906,23.3496094 C34.7753906,24.1959678 34.4661489,24.9283823 33.8476562,25.546875 C33.2291636,26.1653677 32.496749,26.4746094 31.6503906,26.4746094 Z" id="people" fill="#A2B7C3" mask="url(#mask-2)"></path>
                </g>
            </g>
        </g>
    </g>
</svg>