<svg id="architizer-logotype" xmlns="http://www.w3.org/2000/svg" viewBox="0 -4 72 18" style="height: 18px;" title="Architizer">
  <title>Architizer</title>
  <defs><style>.architizer-logo { fill: #fff; }</style></defs>
  <polygon id="letter-a" class="architizer-logo" points="9.63 13.7 5.76 2.18 5.76 2.18 2.38 12.01 7.15 12.01 7.15 13.6 0 13.6 4.87 0.1 6.85 0.1 11.62 13.6 9.63 13.6 9.63 13.7" />
  <path id="letter-r" class="architizer-logo" d="M17.67,5.66c-.2,0-.4-.1-.6-.1A2.93,2.93,0,0,0,14.3,8.74v5H12.61V4.27H14.3V6.06a3,3,0,0,1,2.88-2,.74.74,0,0,1,.5.1Z" transform="translate(0)" />
  <path id="letter-c" class="architizer-logo" d="M22.14,13.9c-2.78,0-4.47-1.89-4.47-5s1.89-5,4.47-5a4.05,4.05,0,0,1,4,2.58l-1.39.7a2.59,2.59,0,0,0-2.58-1.89c-1.69,0-2.78,1.29-2.78,3.57s1.19,3.57,2.78,3.57a2.93,2.93,0,0,0,2.78-1.69l1.29.7A4.22,4.22,0,0,1,22.14,13.9Z" transform="translate(0)" />
  <path id="letter-h" class="architizer-logo" d="M35.15,13.7H33.46V8.24c0-2.09-.79-2.68-2.18-2.68a2.53,2.53,0,0,0-2.48,2.78V13.8H27.11V.2h1.69V5.66a3.29,3.29,0,0,1,3.08-1.59,3,3,0,0,1,2.68,1.19,4.51,4.51,0,0,1,.6,2.58V13.7Z" transform="translate(0)" />
  <g id="letter-i">
    <rect id="letter-i-line" class="architizer-logo" x="36.54" y="4.27" width="1.69" height="9.43" />
    <path id="letter-i-dot" class="architizer-logo" d="M37.43,2.18a1.1,1.1,0,0,1-1.09-1.09,1.09,1.09,0,1,1,2.18,0A1,1,0,0,1,37.43,2.18Z" transform="translate(0)" />
  </g>
  <polygon id="letter-t" class="architizer-logo" points="45.18 5.56 43.09 5.56 43.09 13.6 41.4 13.6 41.4 5.56 39.62 5.56 39.62 4.17 41.4 4.17 41.4 1.19 43.09 1.19 43.09 4.17 45.18 4.17 45.18 5.56" />
  <g id="letter-i-2" data-name="letter-i">
    <rect id="letter-i-line-2" data-name="letter-i-line" class="architizer-logo" x="46.47" y="4.27" width="1.69" height="9.43" />
    <circle id="letter-i-dot-2" data-name="letter-i-dot" class="architizer-logo" cx="47.36" cy="1.09" r="1.09" />
  </g>
  <polygon id="letter-z" class="architizer-logo" points="56.89 13.7 49.45 13.7 49.45 12.41 54.81 5.66 49.74 5.66 49.74 4.27 56.89 4.27 56.89 5.56 51.43 12.41 56.89 12.41 56.89 13.7 56.89 13.7" />
  <path id="letter-e" class="architizer-logo" d="M66.13,9.13c0-2.78-1.39-5-4.27-5-2.58,0-4.47,2-4.47,4.87,0,3.08,1.79,5,4.47,5A4.79,4.79,0,0,0,66,11.82l-1.19-.89a3.13,3.13,0,0,1-2.78,1.59,2.91,2.91,0,0,1-3-3.18h7ZM59.18,8A2.75,2.75,0,0,1,62,5.36c1.39,0,2.28,1,2.48,2.68Z" transform="translate(0)" />
  <path id="letter-r-2" data-name="letter-r" class="architizer-logo" d="M72.48,5.66c-.2,0-.4-.1-.6-.1a2.93,2.93,0,0,0-2.78,3.18v5H67.42V4.27h1.69V6.06a3,3,0,0,1,2.88-2,.74.74,0,0,1,.5.1Z" transform="translate(0)" />
</svg>