<?xml version="1.0" encoding="UTF-8"?>
<svg width="54px" height="54px" viewBox="0 0 54 54" version="1.1" xmlns="http://www.w3.org/2000/svg" xmlns:xlink="http://www.w3.org/1999/xlink">
    <!-- Generator: Sketch 47.1 (45422) - http://www.bohemiancoding.com/sketch -->
    <title>project</title>
    <desc>Created with Sketch.</desc>
    <defs>
        <rect id="path-1" x="0" y="0" width="54" height="54"></rect>
    </defs>
    <g id="Brand-Profile" stroke="none" stroke-width="1" fill="none" fill-rule="evenodd">
        <g id="bpm_profile_claim" transform="translate(-610.000000, -84.000000)">
            <g id="brand_hero" transform="translate(36.000000, 83.000000)">
                <g id="project" transform="translate(574.000000, 1.000000)">
                    <mask id="mask-2" fill="white">
                        <use xlink:href="#path-1"></use>
                    </mask>
                    <use id="mask" fill="#E3EAED" xlink:href="#path-1"></use>
                    <path d="M33.75,30.625 L33.75,32.7246094 L31.6503906,32.7246094 L31.6503906,30.625 L33.75,30.625 Z M33.75,26.4746094 L33.75,28.5253906 L31.6503906,28.5253906 L31.6503906,26.4746094 L33.75,26.4746094 Z M35.8496094,34.7753906 L35.8496094,24.375 L27.5,24.375 L27.5,26.4746094 L29.5996094,26.4746094 L29.5996094,28.5253906 L27.5,28.5253906 L27.5,30.625 L29.5996094,30.625 L29.5996094,32.7246094 L27.5,32.7246094 L27.5,34.7753906 L35.8496094,34.7753906 Z M25.4003906,22.2753906 L25.4003906,20.2246094 L23.3496094,20.2246094 L23.3496094,22.2753906 L25.4003906,22.2753906 Z M25.4003906,26.4746094 L25.4003906,24.375 L23.3496094,24.375 L23.3496094,26.4746094 L25.4003906,26.4746094 Z M25.4003906,30.625 L25.4003906,28.5253906 L23.3496094,28.5253906 L23.3496094,30.625 L25.4003906,30.625 Z M25.4003906,34.7753906 L25.4003906,32.7246094 L23.3496094,32.7246094 L23.3496094,34.7753906 L25.4003906,34.7753906 Z M21.25,22.2753906 L21.25,20.2246094 L19.1503906,20.2246094 L19.1503906,22.2753906 L21.25,22.2753906 Z M21.25,26.4746094 L21.25,24.375 L19.1503906,24.375 L19.1503906,26.4746094 L21.25,26.4746094 Z M21.25,30.625 L21.25,28.5253906 L19.1503906,28.5253906 L19.1503906,30.625 L21.25,30.625 Z M21.25,34.7753906 L21.25,32.7246094 L19.1503906,32.7246094 L19.1503906,34.7753906 L21.25,34.7753906 Z M27.5,22.2753906 L37.9003906,22.2753906 L37.9003906,36.875 L17.0996094,36.875 L17.0996094,18.125 L27.5,18.125 L27.5,22.2753906 Z" id="business" fill="#A2B7C3" mask="url(#mask-2)"></path>
                </g>
            </g>
        </g>
    </g>
</svg>